<?xml version="1.0" standalone="no"?>
<!DOCTYPE svg PUBLIC "-//W3C//DTD SVG 20010904//EN"
 "http://www.w3.org/TR/2001/REC-SVG-20010904/DTD/svg10.dtd">
<svg version="1.0" xmlns="http://www.w3.org/2000/svg"
 width="260.000000pt" height="260.000000pt" viewBox="0 0 260.000000 260.000000"
 preserveAspectRatio="xMidYMid meet">
<metadata>
Created by potrace 1.11, written by Peter Selinger 2001-2013
</metadata>
<g transform="translate(0.000000,260.000000) scale(0.100000,-0.100000)"
fill="#000000" stroke="none">
<path d="M0 1300 l0 -1300 1300 0 1300 0 0 1300 0 1300 -1300 0 -1300 0 0
-1300z m1447 1077 c13 -8 45 -89 425 -1062 378 -966 439 -1126 434 -1134 -3
-4 -94 -7 -203 -7 l-197 1 -21 31 c-12 17 -45 103 -73 190 -54 166 -87 229
-128 245 -35 13 -840 12 -865 -1 -29 -16 -64 -93 -109 -246 -23 -76 -50 -158
-62 -181 l-20 -43 -193 0 c-149 0 -194 3 -198 13 -7 19 381 1076 535 1457 72
179 167 415 211 525 43 110 83 205 88 210 9 13 357 14 376 2z"/>
<path d="M1235 1865 c-79 -183 -305 -788 -305 -814 0 -10 9 -26 21 -37 20 -18
40 -19 298 -19 253 0 279 2 305 19 25 16 28 23 23 55 -9 65 -233 655 -297 781
l-28 55 -17 -40z"/>
</g>
</svg>
